# xmcd
#
# Track frame offsets: 
#        182
#        20932
#        38320
#        50795
#        67407
#        85607
#        101982
#        125620
#        142807
#        164845
#        176782
#        189357
#        208532
#        228157
#        241595
#
# Disc length: 3727 seconds
#
# Revision: 5
# Processed by: cddbd v1.5.1PL0 Copyright (c) Steve Scherf et al.
# Submitted via: ExactAudioCopy v0.95a5
#
DISCID=d30e8d0f
DTITLE=Various Artist - YOUR SONG Disk 3
DYEAR=2001
DGENRE=Other
TTITLE0=Show Me The Way(Live)_Peter Frampton
TTITLE1=Dancing Queen_Abba
TTITLE2=Ben_Michael Jackson
TTITLE3=Save The Best For Last_Vanessa Williams
TTITLE4=Lessons In Love_Level 42
TTITLE5=Unchained Melody_The Righteous Brothers
TTITLE6=I Won't Last Day Without You_Paul Williams
TTITLE7=What's Going On_Marvin Gaye
TTITLE8=Breaking Us In Two_Joe Jackson
TTITLE9=Nothing From Nothing_Billy Preston
TTITLE10=You Can't Hurry Love_Diana Ross and The Supremes
TTITLE11=All Right Now_Free
TTITLE12=I Don't Like Mondays_The Boomtown Rats
TTITLE13=ABC_Jackson 5
TTITLE14=Money For Nothing_Dire Straits
EXTD=YEAR: 2001
EXTT0=
EXTT1=
EXTT2=
EXTT3=
EXTT4=
EXTT5=
EXTT6=
EXTT7=
EXTT8=
EXTT9=
EXTT10=
EXTT11=
EXTT12=
EXTT13=
EXTT14=
PLAYORDER=
